<?xml version="1.0" encoding="UTF-8" standalone="no"?>
<svg
   viewBox="0 0 24 24"
   version="1.1"
   id="svg1"
   sodipodi:docname="gender-male-ischeroth-turquoise.svg"
   inkscape:version="1.3.2 (091e20e, 2023-11-25, custom)"
   xmlns:inkscape="http://www.inkscape.org/namespaces/inkscape"
   xmlns:sodipodi="http://sodipodi.sourceforge.net/DTD/sodipodi-0.dtd"
   xmlns="http://www.w3.org/2000/svg"
   xmlns:svg="http://www.w3.org/2000/svg">
  <defs
     id="defs1" />
  <sodipodi:namedview
     id="namedview1"
     pagecolor="#505050"
     bordercolor="#eeeeee"
     borderopacity="1"
     inkscape:showpageshadow="0"
     inkscape:pageopacity="0"
     inkscape:pagecheckerboard="0"
     inkscape:deskcolor="#505050"
     inkscape:zoom="48.875"
     inkscape:cx="11.98977"
     inkscape:cy="12"
     inkscape:window-width="2560"
     inkscape:window-height="1369"
     inkscape:window-x="1912"
     inkscape:window-y="-8"
     inkscape:window-maximized="1"
     inkscape:current-layer="svg1" />
  <path
     d="M9,9C10.29,9 11.5,9.41 12.47,10.11L17.58,5H13V3H21V11H19V6.41L13.89,11.5C14.59,12.5 15,13.7 15,15A6,6 0 0,1 9,21A6,6 0 0,1 3,15A6,6 0 0,1 9,9M9,11A4,4 0 0,0 5,15A4,4 0 0,0 9,19A4,4 0 0,0 13,15A4,4 0 0,0 9,11Z"
     id="path1"
     style="fill:#00d8b1;fill-opacity:1" />
</svg>
